erDiagram
    workspace {
        text id PK
        text admin
        text business_ws
        text constraint_description_present
        text constraint_project_present
        text constraint_tag_present
        text constraint_task_present
        text constraint_time_entry_constraints_enabled
        text csv_upload_at
        text csv_upload_log_id
        text default_currency
        text default_hourly_rate
        text ical_enabled
        text ical_url
        text logo_url
        text name
        text only_admins_may_create_projects
        text only_admins_may_create_tags
        text only_admins_see_billable_rates
        text only_admins_see_team_dashboard
        text organization_id
        text premium
        text profile
        text projects_billable_by_default
        text rate_last_updated
        text reports_collapse
        text rounding
        text rounding_minutes
        text server_deleted_at
        text subscription_auto_renew
        text subscription_card_details
        text subscription_company_id
        text subscription_contact_detail
        text subscription_created_at
        text subscription_currency
        text subscription_customer_id
        text subscription_deleted_at
        text subscription_last_pricing_plan_id
        text subscription_organization_id
        text subscription_payment_details
        text subscription_pricing_plan_id
        text subscription_renewal_at
        text subscription_subscription_id
        text subscription_subscription_period
        text subscription_workspace_id
        text suspended_at
        text updated_at
        text working_hours_in_minutes
    }
    client {
        text id PK
        text workspace_id PK
        text archived
        text name
        text server_deleted_at
        text update_at
    }
    workspace_project_group {
        text id PK
        text workspace_id PK
        text group_id FK
        text project_id FK
    }
    group_user {
        text group_id PK
        text user_id PK
        text avatar_url
        text joined
        text name
    }
    group_workspace {
        text group_id PK
        text workspace_id PK
    }
    groups {
        text id PK
        text organization_id PK
        text name
        text updated_at
    }
    project {
        text id PK
        text workspace_id PK
        text client_id FK
        text active
        text actual_hours
        text auto_estimates
        text billable
        text color
        text created_at
        text currency
        text current_period
        text estimated_hours
        text fixed_fee
        text is_private
        text name
        text rate
        text rate_last_updated
        text recurring
        text recurring_parameters
        text server_deleted_at
        text template
        text updated_at
    }
    users_group {
        text group_id PK
        text user_id PK
    }
    users {
        text organization_id PK
        text user_id PK
        text workspace_id PK
        text active
        text avatar_file_name
        text email
        text id
        text invitation_code
        text invite_url
        text is_admin
        text is_direct
        text is_inactive
        text labour_cost
        text name
        text organization_admin
        text rate
        text rate_last_updated
        text timezone
        text updated_at
        text working_hours_in_minutes
        text workspace_admin
    }
    tags {
        text id PK
        text workspace_id PK
        text deleted_at
        text name
        text updated_at
    }
    project_user {
        text id PK
        text workspace_id PK
        text group_id FK
        text project_id FK
        text user_id FK
        text manager
    }
    timesheet_approver {
        text index PK
        text member_id PK
        text start_date PK
        text timesheet_id PK
        text workspace_id PK
        text active
        text avatar_url
        text deleted
        text name
        text user_id
    }
    timesheet_error {
        text index PK
        text member_id PK
        text start_date PK
        text timesheet_id PK
        text workspace_id PK
        text code
        text message
    }
    timesheet_review {
        text index PK
        text member_id PK
        text start_date PK
        text timesheet_id PK
        text workspace_id PK
        text approved
        text avatar_url
        text force_approved
        text name
        text rejection_comment
        text updated_at
        text user_id
    }
    timesheet {
        text id PK
        text member_id PK
        text start_date PK
        text workspace_id PK
        text approved_or_rejected_at
        text approved_or_rejected_id
        text approved_or_rejected_name
        text approver_avatar_url
        text approver_id
        text approver_name
        jsonb approvers_layers
        text end_date
        text member_avatar_url
        text member_name
        text period_editable
        text period_end
        text period_locked
        text period_start
        text periodicity
        jsonb permission
        text rejection_comment
        text reminder_day
        text reminder_sent_at
        text reminder_time
        text review_layer
        text status
        text submitted_at
        text timezone
        text working_hours_in_minutes
    }
    time_entry {
        text id PK
        text project_id FK
        text task_id FK
        text user_id FK
        text billable
        text billable_amount_in_cents
        text currency
        text description
        text hourly_rate_in_cents
        text seconds
        text start
        text stop
        text updated_at
        text username
    }
    time_entry_tag {
        text tag_id PK
        text time_entry_id PK
    }
    task {
        text id PK
        text workspace_id PK
        text project_id FK
        text user_id FK
        text active
        text estimated_seconds
        text name
        text recurring
        text server_deleted_at
        text tracked_seconds
        text updated_at
    }
    organization {
        text id PK
        text created_at
        text is_admin
        text is_multi_workspace_enabled
        text is_trial
        text is_trial_available
        text is_unified
        text last_pricing_plan_id
        text max_workspace
        text modified_at
        text name
        text next_payment_date
        text owner
        text payment_methods
        text pricing_plan_id
        text server_deleted_at
        text suspended_at
        text trial_end_date
        text user_count
    }
    client }o--|| workspace : "fk"
    workspace_project_group }o--|| workspace : "fk"
    workspace_project_group }o--|| project : "fk"
    workspace_project_group }o--|| groups : "fk"
    group_user }o--|| users : "fk"
    group_user }o--|| groups : "fk"
    group_workspace }o--|| workspace : "fk"
    group_workspace }o--|| groups : "fk"
    groups }o--|| organization : "fk"
    project }o--|| workspace : "fk"
    project }o--|| client : "fk"
    users_group }o--|| groups : "fk"
    users_group }o--|| users : "fk"
    users }o--|| workspace : "fk"
    tags }o--|| workspace : "fk"
    project_user }o--|| project : "fk"
    project_user }o--|| users : "fk"
    project_user }o--|| workspace : "fk"
    project_user }o--|| groups : "fk"
    timesheet_approver }o--|| timesheet : "fk"
    timesheet_approver }o--|| timesheet : "fk"
    timesheet_approver }o--|| timesheet : "fk"
    timesheet_approver }o--|| timesheet : "fk"
    timesheet_error }o--|| timesheet : "fk"
    timesheet_error }o--|| timesheet : "fk"
    timesheet_error }o--|| timesheet : "fk"
    timesheet_error }o--|| timesheet : "fk"
    timesheet_review }o--|| timesheet : "fk"
    timesheet_review }o--|| timesheet : "fk"
    timesheet_review }o--|| timesheet : "fk"
    timesheet_review }o--|| timesheet : "fk"
    timesheet }o--|| workspace : "fk"
    time_entry }o--|| users : "fk"
    time_entry }o--|| project : "fk"
    time_entry }o--|| task : "fk"
    time_entry_tag }o--|| tags : "fk"
    time_entry_tag }o--|| time_entry : "fk"
    task }o--|| users : "fk"
    task }o--|| workspace : "fk"
    task }o--|| project : "fk"
    organization }o--|| workspace : "fk"
